<?xml version="1.0" standalone="no"?>
<!DOCTYPE svg PUBLIC "-//W3C//DTD SVG 20010904//EN"
 "http://www.w3.org/TR/2001/REC-SVG-20010904/DTD/svg10.dtd">
<svg version="1.0" xmlns="http://www.w3.org/2000/svg"
 width="700.000000pt" height="700.000000pt" viewBox="0 0 700.000000 700.000000"
 preserveAspectRatio="xMidYMid meet">
<metadata>
Created by potrace 1.14, written by Peter Selinger 2001-2017
</metadata>
<g transform="translate(0.000000,700.000000) scale(0.100000,-0.100000)"
fill="#000000" stroke="none">
<path d="M1678 6745 c-2 -2 -30 -6 -63 -10 -333 -37 -681 -187 -946 -407 -234
-193 -439 -476 -544 -753 -15 -38 -28 -74 -29 -80 -2 -5 -6 -17 -9 -25 -11
-29 -38 -130 -48 -182 -31 -165 -37 -240 -34 -438 5 -314 44 -543 137 -810 81
-232 213 -480 371 -699 63 -88 178 -231 233 -291 17 -19 58 -64 90 -99 106
-116 271 -278 479 -470 46 -43 208 -188 309 -276 38 -33 74 -65 80 -70 6 -6
90 -79 186 -164 96 -85 182 -162 191 -170 9 -9 59 -54 110 -101 275 -249 682
-658 815 -820 16 -19 43 -51 61 -70 17 -19 42 -48 54 -65 13 -16 26 -32 29
-35 3 -3 36 -43 74 -90 37 -47 73 -92 79 -100 32 -40 175 -237 184 -254 9 -16
19 -5 78 80 121 174 267 367 359 474 17 20 42 50 56 67 192 235 674 720 1030
1034 52 46 102 91 110 99 8 9 69 63 135 120 65 58 126 112 135 120 9 8 43 39
76 69 591 533 875 836 1101 1176 248 374 379 734 422 1165 9 82 6 413 -3 470
-3 19 -8 53 -12 75 -3 22 -17 84 -30 137 -155 622 -621 1119 -1230 1313 -307
97 -654 110 -972 35 -470 -112 -882 -408 -1137 -820 -32 -52 -67 -114 -77
-137 -10 -24 -22 -43 -27 -43 -4 0 -18 21 -31 48 -98 197 -284 429 -470 585
-84 71 -254 179 -366 233 -254 123 -514 182 -806 181 -81 0 -149 -1 -150 -2z"/>
</g>
</svg>
