<?xml version="1.0" standalone="no"?>
<!DOCTYPE svg PUBLIC "-//W3C//DTD SVG 20010904//EN"
 "http://www.w3.org/TR/2001/REC-SVG-20010904/DTD/svg10.dtd">
<svg version="1.0" xmlns="http://www.w3.org/2000/svg"
 width="260.000000pt" height="260.000000pt" viewBox="0 0 260.000000 260.000000"
 preserveAspectRatio="xMidYMid meet">
<metadata>
Created by potrace 1.11, written by Peter Selinger 2001-2013
</metadata>
<g transform="translate(0.000000,260.000000) scale(0.100000,-0.100000)"
fill="#000000" stroke="none">
<path d="M0 1300 l0 -1300 1300 0 1300 0 0 1300 0 1300 -1300 0 -1300 0 0
-1300z m2410 10 l0 -1120 -1120 0 -1120 0 0 1120 0 1120 1120 0 1120 0 0
-1120z"/>
<path d="M310 1310 l0 -980 980 0 980 0 0 980 0 980 -980 0 -980 0 0 -980z
m793 63 c114 -254 207 -464 207 -467 0 -3 -33 -6 -72 -6 l-73 0 -46 108 -46
107 -193 0 -192 0 -48 -105 -48 -105 -71 -3 c-39 -2 -71 1 -71 5 0 18 435 942
440 935 4 -4 100 -215 213 -469z m457 252 l0 -175 195 0 195 0 0 175 0 175 65
0 65 0 0 -450 0 -450 -65 0 -65 0 0 210 0 210 -195 0 -195 0 0 -210 0 -210
-65 0 -65 0 0 450 0 450 65 0 65 0 0 -175z"/>
<path d="M866 1509 c-8 -20 -38 -85 -66 -144 -27 -59 -50 -109 -50 -111 0 -2
59 -4 130 -4 72 0 130 2 130 5 0 6 -108 253 -120 274 -7 13 -11 10 -24 -20z"/>
</g>
</svg>
